<svg width="96" height="92" viewBox="0 0 96 92" fill="none" xmlns="http://www.w3.org/2000/svg">
<path d="M122.165 77.2072C87.8765 97.0037 44.0318 85.2553 24.2353 50.9669C4.43901 16.6784 16.1871 -27.166 50.4756 -46.9625L58.769 -51.715C65.6271 -55.6744 77.0706 -48.6922 84.329 -36.1197C91.5878 -23.5472 91.9131 -10.1457 85.0553 -6.18659L76.7618 -1.43377C67.6181 3.84529 64.4856 15.5372 69.7643 24.6806C75.0437 33.8243 86.7353 36.9572 95.8787 31.6781L104.157 26.8987C111.015 22.9397 122.458 29.9219 129.717 42.4944C136.976 55.0669 137.301 68.4681 130.443 72.4278L122.165 77.2072Z" fill="#89DCFF"/>
<path d="M122.165 77.2072C87.8765 97.0037 44.0318 85.2553 24.2353 50.9669C4.43901 16.6784 16.1871 -27.166 50.4756 -46.9625L58.769 -51.715C65.6271 -55.6744 77.0706 -48.6922 84.329 -36.1197C91.5878 -23.5472 91.9131 -10.1457 85.0553 -6.18659L76.7618 -1.43377C67.6181 3.84529 64.4856 15.5372 69.7643 24.6806C75.0437 33.8244 86.7353 36.9572 95.8787 31.6781L104.157 26.8987C111.015 22.9397 122.458 29.9219 129.717 42.4944C136.976 55.0669 137.301 68.4681 130.443 72.4278L122.165 77.2072Z" stroke="black" stroke-width="2" stroke-linecap="round" stroke-linejoin="round"/>
</svg>
