<svg width="146" height="147" viewBox="0 0 146 147" fill="none" xmlns="http://www.w3.org/2000/svg">
<path d="M52.8209 7.15796H117.862L147.179 36.2846V52.8209H163.715L192.842 81.9475V147.179H147.179V192.842H81.9475L52.8209 163.715V147.179H36.2846L7.15796 117.867V52.8259H52.8209V7.15796Z" fill="white"/>
<path d="M163.453 118.115L192.842 146.906H146.906L132.51 132.51L118.115 118.115H163.453Z" fill="#F11F9D"/>
<path d="M118.115 118.115L146.906 146.906V192.842L118.115 163.452V118.115Z" fill="#89DCFF"/>
<path d="M117.867 7.15796H52.7434V52.7434H7.15796V117.867H52.7434V163.453H117.867V117.867H163.453V52.7434H117.867V7.15796Z" fill="#94E986"/>
<path d="M52.7434 147.185H36.2846L7.15796 117.872H52.7434V147.185Z" fill="#F11F9D"/>
<path d="M147.179 36.2846V52.7434H117.867V7.15796L147.179 36.2846Z" fill="#89DCFF"/>
<path d="M52.8209 7.15796H117.862L147.179 36.2846V52.8209H163.715L192.842 81.9475V147.179H147.179V192.842H81.9475L52.8209 163.715V147.179H36.2846L7.15796 117.867V52.8259H52.8209V7.15796Z" stroke="black" stroke-width="2" stroke-linecap="round" stroke-linejoin="round"/>
<path d="M163.453 118.115L192.842 146.906H146.906L132.51 132.51L118.115 118.115H163.453Z" stroke="black" stroke-width="2" stroke-linecap="round" stroke-linejoin="round"/>
<path d="M118.115 118.115L146.906 146.906V192.842L118.115 163.452V118.115Z" stroke="black" stroke-width="2" stroke-linecap="round" stroke-linejoin="round"/>
<path d="M117.867 7.15796H52.7434V52.7434H7.15796V117.867H52.7434V163.453H117.867V117.867H163.453V52.7434H117.867V7.15796Z" stroke="black" stroke-width="2" stroke-linecap="round" stroke-linejoin="round"/>
<path d="M52.7434 147.185H36.2846L7.15796 117.872H52.7434V147.185Z" stroke="black" stroke-width="2" stroke-linecap="round" stroke-linejoin="round"/>
<path d="M147.179 36.2846V52.7434H117.867V7.15796L147.179 36.2846Z" stroke="black" stroke-width="2" stroke-linecap="round" stroke-linejoin="round"/>
</svg>
