<svg width="291" height="48" viewBox="0 0 291 48" fill="none" xmlns="http://www.w3.org/2000/svg">
<path d="M2 23.0369C2 25.442 2.47371 27.8234 3.39407 30.0454C4.31443 32.2673 5.66343 34.2863 7.36405 35.9869C9.06466 37.6875 11.0836 39.0365 13.3055 39.9569C15.5275 40.8772 17.909 41.3509 20.314 41.3509C22.719 41.3509 25.1005 40.8772 27.3225 39.9569C29.5444 39.0365 31.5633 37.6875 33.264 35.9869C34.9646 34.2863 36.3136 32.2673 37.2339 30.0454C38.1543 27.8234 38.628 25.442 38.628 23.0369C38.628 20.6319 38.1543 18.2504 37.2339 16.0285C36.3136 13.8065 34.9646 11.7876 33.264 10.087C31.5633 8.38634 29.5444 7.03734 27.3225 6.11697C25.1005 5.19661 22.719 4.7229 20.314 4.7229C17.909 4.7229 15.5275 5.19661 13.3055 6.11697C11.0836 7.03734 9.06466 8.38634 7.36405 10.087C5.66343 11.7876 4.31443 13.8065 3.39407 16.0285C2.47371 18.2504 2 20.6319 2 23.0369Z" fill="#94E986"/>
<path d="M46.001 24.9628C46.001 35.0774 37.8015 43.2769 27.6868 43.2769L17.498 41.1364C18.416 41.278 19.3566 41.3515 20.3142 41.3515C30.4288 41.3515 38.6284 33.152 38.6284 23.0374C38.6284 14.6574 33 7.59195 25.3174 5.41504L32.9421 7.4138C40.4955 9.67251 46.001 16.6747 46.001 24.9628Z" fill="#FFBD92"/>
<path d="M2 23.0369C2 25.442 2.47371 27.8234 3.39407 30.0454C4.31443 32.2673 5.66343 34.2863 7.36405 35.9869C9.06466 37.6875 11.0836 39.0365 13.3055 39.9569C15.5275 40.8772 17.909 41.3509 20.314 41.3509C22.719 41.3509 25.1005 40.8772 27.3225 39.9569C29.5444 39.0365 31.5633 37.6875 33.264 35.9869C34.9646 34.2863 36.3136 32.2673 37.2339 30.0454C38.1543 27.8234 38.628 25.442 38.628 23.0369C38.628 20.6319 38.1543 18.2504 37.2339 16.0285C36.3136 13.8065 34.9646 11.7876 33.264 10.087C31.5633 8.38634 29.5444 7.03734 27.3225 6.11697C25.1005 5.19661 22.719 4.7229 20.314 4.7229C17.909 4.7229 15.5275 5.19661 13.3055 6.11697C11.0836 7.03734 9.06466 8.38634 7.36405 10.087C5.66343 11.7876 4.31443 13.8065 3.39407 16.0285C2.47371 18.2504 2 20.6319 2 23.0369Z" stroke="black" stroke-width="2"/>
<path d="M46.001 24.9628C46.001 35.0774 37.8015 43.2769 27.6868 43.2769L17.498 41.1364C18.416 41.278 19.3566 41.3515 20.3142 41.3515C30.4288 41.3515 38.6284 33.152 38.6284 23.0374C38.6284 14.6574 33 7.59195 25.3174 5.41504L32.9421 7.4138C40.4955 9.67251 46.001 16.6747 46.001 24.9628Z" stroke="black" stroke-width="2"/>
<path d="M10.041 23.1311C10.041 25.5361 10.3067 27.9176 10.8229 30.1396C11.3391 32.3615 12.0958 34.3805 13.0496 36.0811C14.0035 37.7817 15.1358 39.1307 16.3821 40.051C17.6283 40.9714 18.9641 41.4451 20.313 41.4451C21.662 41.4451 22.9977 40.9714 24.2439 40.051C25.4902 39.1307 26.6226 37.7817 27.5764 36.0811C28.5303 34.3805 29.2869 32.3615 29.8031 30.1396C30.3193 27.9176 30.585 25.5361 30.585 23.1311C30.585 20.7261 30.3193 18.3446 29.8031 16.1227C29.2869 13.9007 28.5303 11.8818 27.5764 10.1812C26.6226 8.48057 25.4902 7.13157 24.2439 6.21121C22.9977 5.29084 21.662 4.81714 20.313 4.81714C18.9641 4.81714 17.6283 5.29084 16.3821 6.21121C15.1358 7.13157 14.0035 8.48057 13.0496 10.1812C12.0958 11.8818 11.3391 13.9007 10.8229 16.1227C10.3067 18.3446 10.041 20.7261 10.041 23.1311Z" stroke="black" stroke-width="2"/>
<path d="M20.3145 4.81738V41.2578" stroke="black" stroke-width="2" stroke-linejoin="round"/>
<path d="M38.5332 23.0371H2.09277" stroke="black" stroke-width="2" stroke-linejoin="round"/>
<path d="M36.0918 13.5977H4.53516" stroke="black" stroke-width="2" stroke-linejoin="round"/>
<path d="M36.0918 32.334H4.53516" stroke="black" stroke-width="2" stroke-linejoin="round"/>
<path d="M64.204 34L55.748 14.4H60.648L68.04 31.76H65.156L72.66 14.4H77.168L68.684 34H64.204ZM85.2445 34.336C83.6765 34.336 82.1738 34.1307 80.7365 33.72C79.2991 33.2907 78.1418 32.74 77.2645 32.068L78.8045 28.652C79.6445 29.2493 80.6338 29.744 81.7725 30.136C82.9298 30.5093 84.0965 30.696 85.2725 30.696C86.1685 30.696 86.8871 30.612 87.4285 30.444C87.9885 30.2573 88.3991 30.0053 88.6605 29.688C88.9218 29.3707 89.0525 29.0067 89.0525 28.596C89.0525 28.0733 88.8471 27.6627 88.4365 27.364C88.0258 27.0467 87.4845 26.7947 86.8125 26.608C86.1405 26.4027 85.3938 26.216 84.5725 26.048C83.7698 25.8613 82.9578 25.6373 82.1365 25.376C81.3338 25.1147 80.5965 24.7787 79.9245 24.368C79.2525 23.9573 78.7018 23.416 78.2725 22.744C77.8618 22.072 77.6565 21.2133 77.6565 20.168C77.6565 19.048 77.9551 18.0307 78.5525 17.116C79.1685 16.1827 80.0831 15.4453 81.2965 14.904C82.5285 14.344 84.0685 14.064 85.9165 14.064C87.1485 14.064 88.3619 14.2133 89.5565 14.512C90.7511 14.792 91.8058 15.2213 92.7205 15.8L91.3205 19.244C90.4058 18.7213 89.4911 18.3387 88.5765 18.096C87.6618 17.8347 86.7658 17.704 85.8885 17.704C85.0111 17.704 84.2925 17.8067 83.7325 18.012C83.1725 18.2173 82.7711 18.488 82.5285 18.824C82.2858 19.1413 82.1645 19.5147 82.1645 19.944C82.1645 20.448 82.3698 20.8587 82.7805 21.176C83.1911 21.4747 83.7325 21.7173 84.4045 21.904C85.0765 22.0907 85.8138 22.2773 86.6165 22.464C87.4378 22.6507 88.2498 22.8653 89.0525 23.108C89.8738 23.3507 90.6205 23.6773 91.2925 24.088C91.9646 24.4987 92.5058 25.04 92.9165 25.712C93.3458 26.384 93.5605 27.2333 93.5605 28.26C93.5605 29.3613 93.2525 30.3693 92.6365 31.284C92.0205 32.1987 91.0965 32.936 89.8645 33.496C88.6511 34.056 87.1111 34.336 85.2445 34.336ZM96.6599 34V14.4H101.196V30.304H111.024V34H96.6599Z" fill="#FFBD92"/>
<path d="M115.786 34.0001V18.0961H109.514V14.4001H126.594V18.0961H120.322V34.0001H115.786ZM128.399 34.0001V18.9361H132.571V23.1921L131.983 21.9601C132.431 20.8961 133.149 20.0934 134.139 19.5521C135.128 18.9921 136.332 18.7121 137.751 18.7121V22.7441C137.564 22.7254 137.396 22.7161 137.247 22.7161C137.097 22.6974 136.939 22.6881 136.771 22.6881C135.576 22.6881 134.605 23.0334 133.859 23.7241C133.131 24.3961 132.767 25.4508 132.767 26.8881V34.0001H128.399ZM148.604 34.0001V31.0601L148.324 30.4161V25.1521C148.324 24.2188 148.034 23.4908 147.456 22.9681C146.896 22.4454 146.028 22.1841 144.852 22.1841C144.049 22.1841 143.256 22.3148 142.472 22.5761C141.706 22.8188 141.053 23.1548 140.512 23.5841L138.944 20.5321C139.765 19.9534 140.754 19.5054 141.912 19.1881C143.069 18.8708 144.245 18.7121 145.44 18.7121C147.736 18.7121 149.518 19.2534 150.788 20.3361C152.057 21.4188 152.692 23.1081 152.692 25.4041V34.0001H148.604ZM144.012 34.2241C142.836 34.2241 141.828 34.0281 140.988 33.6361C140.148 33.2254 139.504 32.6748 139.056 31.9841C138.608 31.2934 138.384 30.5188 138.384 29.6601C138.384 28.7641 138.598 27.9801 139.028 27.3081C139.476 26.6361 140.176 26.1134 141.128 25.7401C142.08 25.3481 143.321 25.1521 144.852 25.1521H148.856V27.7001H145.328C144.301 27.7001 143.592 27.8681 143.2 28.2041C142.826 28.5401 142.64 28.9601 142.64 29.4641C142.64 30.0241 142.854 30.4721 143.284 30.8081C143.732 31.1254 144.338 31.2841 145.104 31.2841C145.832 31.2841 146.485 31.1161 147.064 30.7801C147.642 30.4254 148.062 29.9121 148.324 29.2401L148.996 31.2561C148.678 32.2268 148.1 32.9641 147.26 33.4681C146.42 33.9721 145.337 34.2241 144.012 34.2241ZM165.801 18.7121C166.996 18.7121 168.06 18.9548 168.993 19.4401C169.945 19.9068 170.692 20.6348 171.233 21.6241C171.774 22.5948 172.045 23.8454 172.045 25.3761V34.0001H167.677V26.0481C167.677 24.8348 167.406 23.9388 166.865 23.3601C166.342 22.7814 165.596 22.4921 164.625 22.4921C163.934 22.4921 163.309 22.6414 162.749 22.9401C162.208 23.2201 161.778 23.6588 161.461 24.2561C161.162 24.8534 161.013 25.6188 161.013 26.5521V34.0001H156.645V18.9361H160.817V23.1081L160.033 21.8481C160.574 20.8401 161.349 20.0654 162.357 19.5241C163.365 18.9828 164.513 18.7121 165.801 18.7121ZM181.072 34.2241C179.784 34.2241 178.543 34.0748 177.348 33.7761C176.172 33.4588 175.239 33.0668 174.548 32.6001L176.004 29.4641C176.695 29.8934 177.507 30.2481 178.44 30.5281C179.392 30.7894 180.326 30.9201 181.24 30.9201C182.248 30.9201 182.958 30.7988 183.368 30.5561C183.798 30.3134 184.012 29.9774 184.012 29.5481C184.012 29.1934 183.844 28.9321 183.508 28.7641C183.191 28.5774 182.762 28.4374 182.22 28.3441C181.679 28.2508 181.082 28.1574 180.428 28.0641C179.794 27.9708 179.15 27.8494 178.496 27.7001C177.843 27.5321 177.246 27.2894 176.704 26.9721C176.163 26.6548 175.724 26.2254 175.388 25.6841C175.071 25.1428 174.912 24.4428 174.912 23.5841C174.912 22.6321 175.183 21.7921 175.724 21.0641C176.284 20.3361 177.087 19.7668 178.132 19.3561C179.178 18.9268 180.428 18.7121 181.884 18.7121C182.911 18.7121 183.956 18.8241 185.02 19.0481C186.084 19.2721 186.971 19.5988 187.68 20.0281L186.224 23.1361C185.496 22.7068 184.759 22.4174 184.012 22.2681C183.284 22.1001 182.575 22.0161 181.884 22.0161C180.914 22.0161 180.204 22.1468 179.756 22.4081C179.308 22.6694 179.084 23.0054 179.084 23.4161C179.084 23.7894 179.243 24.0694 179.56 24.2561C179.896 24.4428 180.335 24.5921 180.876 24.7041C181.418 24.8161 182.006 24.9188 182.64 25.0121C183.294 25.0868 183.947 25.2081 184.6 25.3761C185.254 25.5441 185.842 25.7868 186.364 26.1041C186.906 26.4028 187.344 26.8228 187.68 27.3641C188.016 27.8868 188.184 28.5774 188.184 29.4361C188.184 30.3694 187.904 31.2001 187.344 31.9281C186.784 32.6374 185.972 33.1974 184.908 33.6081C183.863 34.0188 182.584 34.2241 181.072 34.2241ZM190.879 34.0001V13.2241H195.247V34.0001H190.879ZM208.541 34.0001V31.0601L208.261 30.4161V25.1521C208.261 24.2188 207.972 23.4908 207.393 22.9681C206.833 22.4454 205.965 22.1841 204.789 22.1841C203.986 22.1841 203.193 22.3148 202.409 22.5761C201.644 22.8188 200.99 23.1548 200.449 23.5841L198.881 20.5321C199.702 19.9534 200.692 19.5054 201.849 19.1881C203.006 18.8708 204.182 18.7121 205.377 18.7121C207.673 18.7121 209.456 19.2534 210.725 20.3361C211.994 21.4188 212.629 23.1081 212.629 25.4041V34.0001H208.541ZM203.949 34.2241C202.773 34.2241 201.765 34.0281 200.925 33.6361C200.085 33.2254 199.441 32.6748 198.993 31.9841C198.545 31.2934 198.321 30.5188 198.321 29.6601C198.321 28.7641 198.536 27.9801 198.965 27.3081C199.413 26.6361 200.113 26.1134 201.065 25.7401C202.017 25.3481 203.258 25.1521 204.789 25.1521H208.793V27.7001H205.265C204.238 27.7001 203.529 27.8681 203.137 28.2041C202.764 28.5401 202.577 28.9601 202.577 29.4641C202.577 30.0241 202.792 30.4721 203.221 30.8081C203.669 31.1254 204.276 31.2841 205.041 31.2841C205.769 31.2841 206.422 31.1161 207.001 30.7801C207.58 30.4254 208 29.9121 208.261 29.2401L208.933 31.2561C208.616 32.2268 208.037 32.9641 207.197 33.4681C206.357 33.9721 205.274 34.2241 203.949 34.2241ZM222.742 34.2241C220.969 34.2241 219.588 33.7761 218.598 32.8801C217.609 31.9654 217.114 30.6121 217.114 28.8201V15.6041H221.482V28.7641C221.482 29.3988 221.65 29.8934 221.986 30.2481C222.322 30.5841 222.78 30.7521 223.358 30.7521C224.049 30.7521 224.637 30.5654 225.122 30.1921L226.298 33.2721C225.85 33.5894 225.309 33.8321 224.674 34.0001C224.058 34.1494 223.414 34.2241 222.742 34.2241ZM214.79 22.6321V19.2721H225.234V22.6321H214.79ZM235.454 34.2241C233.848 34.2241 232.42 33.8881 231.17 33.2161C229.938 32.5441 228.958 31.6294 228.23 30.4721C227.52 29.2961 227.166 27.9614 227.166 26.4681C227.166 24.9561 227.52 23.6214 228.23 22.4641C228.958 21.2881 229.938 20.3734 231.17 19.7201C232.42 19.0481 233.848 18.7121 235.454 18.7121C237.04 18.7121 238.459 19.0481 239.71 19.7201C240.96 20.3734 241.94 21.2788 242.65 22.4361C243.359 23.5934 243.714 24.9374 243.714 26.4681C243.714 27.9614 243.359 29.2961 242.65 30.4721C241.94 31.6294 240.96 32.5441 239.71 33.2161C238.459 33.8881 237.04 34.2241 235.454 34.2241ZM235.454 30.6401C236.182 30.6401 236.835 30.4721 237.414 30.1361C237.992 29.8001 238.45 29.3241 238.786 28.7081C239.122 28.0734 239.29 27.3268 239.29 26.4681C239.29 25.5908 239.122 24.8441 238.786 24.2281C238.45 23.6121 237.992 23.1361 237.414 22.8001C236.835 22.4641 236.182 22.2961 235.454 22.2961C234.726 22.2961 234.072 22.4641 233.494 22.8001C232.915 23.1361 232.448 23.6121 232.094 24.2281C231.758 24.8441 231.59 25.5908 231.59 26.4681C231.59 27.3268 231.758 28.0734 232.094 28.7081C232.448 29.3241 232.915 29.8001 233.494 30.1361C234.072 30.4721 234.726 30.6401 235.454 30.6401ZM246.633 34.0001V18.9361H250.805V23.1921L250.217 21.9601C250.665 20.8961 251.384 20.0934 252.373 19.5521C253.363 18.9921 254.567 18.7121 255.985 18.7121V22.7441C255.799 22.7254 255.631 22.7161 255.481 22.7161C255.332 22.6974 255.173 22.6881 255.005 22.6881C253.811 22.6881 252.84 23.0334 252.093 23.7241C251.365 24.3961 251.001 25.4508 251.001 26.8881V34.0001H246.633ZM260.07 34.2241C259.324 34.2241 258.68 33.9721 258.138 33.4681C257.616 32.9454 257.354 32.2828 257.354 31.4801C257.354 30.6774 257.616 30.0334 258.138 29.5481C258.68 29.0441 259.324 28.7921 260.07 28.7921C260.836 28.7921 261.48 29.0441 262.002 29.5481C262.525 30.0334 262.786 30.6774 262.786 31.4801C262.786 32.2828 262.525 32.9454 262.002 33.4681C261.48 33.9721 260.836 34.2241 260.07 34.2241ZM265.746 34.0001V18.9361H270.114V34.0001H265.746ZM267.93 16.8361C267.128 16.8361 266.474 16.6028 265.97 16.1361C265.466 15.6694 265.214 15.0908 265.214 14.4001C265.214 13.7094 265.466 13.1308 265.97 12.6641C266.474 12.1974 267.128 11.9641 267.93 11.9641C268.733 11.9641 269.386 12.1881 269.89 12.6361C270.394 13.0654 270.646 13.6254 270.646 14.3161C270.646 15.0441 270.394 15.6508 269.89 16.1361C269.405 16.6028 268.752 16.8361 267.93 16.8361ZM281.336 34.2241C279.731 34.2241 278.303 33.8881 277.052 33.2161C275.82 32.5441 274.84 31.6294 274.112 30.4721C273.403 29.2961 273.048 27.9614 273.048 26.4681C273.048 24.9561 273.403 23.6214 274.112 22.4641C274.84 21.2881 275.82 20.3734 277.052 19.7201C278.303 19.0481 279.731 18.7121 281.336 18.7121C282.923 18.7121 284.342 19.0481 285.592 19.7201C286.843 20.3734 287.823 21.2788 288.532 22.4361C289.242 23.5934 289.596 24.9374 289.596 26.4681C289.596 27.9614 289.242 29.2961 288.532 30.4721C287.823 31.6294 286.843 32.5441 285.592 33.2161C284.342 33.8881 282.923 34.2241 281.336 34.2241ZM281.336 30.6401C282.064 30.6401 282.718 30.4721 283.296 30.1361C283.875 29.8001 284.332 29.3241 284.668 28.7081C285.004 28.0734 285.172 27.3268 285.172 26.4681C285.172 25.5908 285.004 24.8441 284.668 24.2281C284.332 23.6121 283.875 23.1361 283.296 22.8001C282.718 22.4641 282.064 22.2961 281.336 22.2961C280.608 22.2961 279.955 22.4641 279.376 22.8001C278.798 23.1361 278.331 23.6121 277.976 24.2281C277.64 24.8441 277.472 25.5908 277.472 26.4681C277.472 27.3268 277.64 28.0734 277.976 28.7081C278.331 29.3241 278.798 29.8001 279.376 30.1361C279.955 30.4721 280.608 30.6401 281.336 30.6401Z" fill="white"/>
</svg>
