<svg xmlns="http://www.w3.org/2000/svg" fill="none" viewBox="0 0 250 250" id="Number-1-One--Streamline-Retro.svg" height="250" width="250"><desc>Number 1 One Streamline Element: https://streamlinehq.com</desc><path fill="#ffce51" fill-rule="evenodd" d="M87.13489583333333 95.64895833333333C80.053125 100.59010416666666 71.8484375 104.16302083333333 62.846354166666664 105.9109375L29.845833333333335 112.3203125L22.691145833333334 75.48229166666665L55.69166666666666 69.07291666666667C69.86354166666666 66.32083333333333 78.8203125 52.838541666666664 76.18854166666667 39.28854166666667L113.0265625 32.133854166666666L143.07604166666667 186.85364583333333L201.40312500000002 175.5255208333333L208.55729166666666 212.36354166666666L55.06614583333333 242.1739583333333L47.91145833333333 205.3359375L106.23802083333332 194.00781249999997L87.13489583333333 95.64895833333333Z" clip-rule="evenodd" stroke-width="2"></path><path fill="#ffb9ec" d="M113.03697916666665 32.13177083333333L76.19947916666666 39.28645833333333L94.96197916666667 14.980729166666666L131.79999999999998 7.826041666666666L113.03697916666665 32.13177083333333Z" stroke-width="2"></path><path fill="#ffb9ec" d="M208.5583333333333 212.3578125L201.40416666666667 175.5203125L220.16718749999998 151.21458333333334L227.321875 188.05260416666664L208.5583333333333 212.3578125Z" stroke-width="2"></path><path fill="#ffb9ec" d="M201.39322916666663 175.5203125L143.06666666666666 186.84791666666666L161.8296875 162.54270833333334L220.15677083333333 151.21458333333334L201.39322916666663 175.5203125Z" stroke-width="2"></path><path fill="#ffb9ec" d="M143.0739583333333 186.8515625L113.02395833333334 32.13177083333333L131.78697916666667 7.826041666666666L161.83645833333333 162.5453125L143.0739583333333 186.8515625Z" stroke-width="2"></path><path fill="#ffb9ec" d="M22.678124999999998 75.48177083333333L55.678645833333334 69.07239583333333C68.11406249999999 66.65729166666667 76.53385416666666 55.98020833333333 76.63229166666666 44.245312500000004C75.9171875 44.447916666666664 75.18697916666666 44.621874999999996 74.44166666666666 44.766666666666666L41.44114583333333 51.17604166666666L22.678124999999998 75.48177083333333Z" stroke-width="2"></path><path fill="#2685f5" d="M47.90416666666666 205.328125L106.23124999999999 193.99999999999997L102.36354166666666 174.0895833333333L66.6671875 181.02239583333335L47.90416666666666 205.328125Z" stroke-width="2"></path><path stroke="#000000" stroke-linecap="square" stroke-linejoin="round" d="M87.13489583333333 95.64895833333333C80.053125 100.59010416666666 71.8484375 104.16302083333333 62.846354166666664 105.9109375L29.845833333333335 112.3203125L22.691145833333334 75.48229166666665L55.69166666666666 69.07291666666667C69.86354166666666 66.32083333333333 78.8203125 52.838541666666664 76.18854166666667 39.28854166666667L113.0265625 32.133854166666666L143.07604166666667 186.85364583333333L201.40312500000002 175.5255208333333L208.55729166666666 212.36354166666666L55.06614583333333 242.1739583333333L47.91145833333333 205.3359375L106.23802083333332 194.00781249999997L87.13489583333333 95.64895833333333Z" clip-rule="evenodd" stroke-width="2"></path><path stroke="#000000" stroke-linecap="square" stroke-linejoin="round" d="M113.03697916666665 32.13177083333333L76.19947916666666 39.28645833333333L94.96197916666667 14.980729166666666L131.79999999999998 7.826041666666666L113.03697916666665 32.13177083333333Z" stroke-width="2"></path><path stroke="#000000" stroke-linecap="square" stroke-linejoin="round" d="M208.5583333333333 212.3578125L201.40416666666667 175.5203125L220.16718749999998 151.21458333333334L227.321875 188.05260416666664L208.5583333333333 212.3578125Z" stroke-width="2"></path><path stroke="#000000" stroke-linecap="square" stroke-linejoin="round" d="M201.39322916666663 175.5203125L143.06666666666666 186.84791666666666L161.8296875 162.54270833333334L220.15677083333333 151.21458333333334L201.39322916666663 175.5203125Z" stroke-width="2"></path><path stroke="#000000" stroke-linecap="square" stroke-linejoin="round" d="M143.0739583333333 186.8515625L113.02395833333334 32.13177083333333L131.78697916666667 7.826041666666666L161.83645833333333 162.5453125L143.0739583333333 186.8515625Z" stroke-width="2"></path><path stroke="#000000" stroke-linecap="square" stroke-linejoin="round" d="M22.678124999999998 75.48177083333333L55.678645833333334 69.07239583333333C68.11406249999999 66.65729166666667 76.53385416666666 55.98020833333333 76.63229166666666 44.245312500000004C75.9171875 44.447916666666664 75.18697916666666 44.621874999999996 74.44166666666666 44.766666666666666L41.44114583333333 51.17604166666666L22.678124999999998 75.48177083333333Z" stroke-width="2"></path><path stroke="#000000" stroke-linecap="square" stroke-linejoin="round" d="M47.90416666666666 205.328125L106.23124999999999 193.99999999999997L102.36354166666666 174.0895833333333L66.6671875 181.02239583333335L47.90416666666666 205.328125Z" stroke-width="2"></path></svg>