<svg xmlns="http://www.w3.org/2000/svg" fill="none" viewBox="0 0 250 250" id="Number-5-Five--Streamline-Retro.svg" height="250" width="250"><desc>Number 5 Five Streamline Element: https://streamlinehq.com</desc><path fill="#94e986" fill-rule="evenodd" d="M33.789583333333326 19.240104166666665L168.709375 7.836458333333333L171.7520833333333 43.83958333333333L73.07760416666666 52.17968749999999L76.39947916666667 91.10520833333334L138.08645833333333 85.89166666666665C161.6755208333333 83.89791666666666 182.25677083333332 101.49427083333332 184.24166666666667 124.97447916666667L188.03958333333333 169.90937499999998C190.02447916666665 193.3953125 172.68229166666666 214.18489583333331 149.09895833333331 216.17864583333335L87.40208333333332 221.39322916666666C63.813541666666666 223.38697916666666 43.23177083333333 205.7911458333333 41.24739583333333 182.31041666666664L40.086979166666666 168.584375L76.09010416666666 165.54114583333333L77.25052083333333 179.26770833333333C77.56979166666666 183.0453125 80.83541666666666 185.6880208333333 84.35885416666666 185.39010416666667L146.05520833333333 180.1755208333333C149.58489583333332 179.87708333333333 152.3552083333333 176.72447916666667 152.03645833333331 172.95260416666665L148.23854166666666 128.01770833333333C147.91875 124.24010416666665 144.65364583333331 121.59739583333332 141.1296875 121.89531249999999L43.16614583333333 130.17499999999998L33.789583333333326 19.240104166666665Z" clip-rule="evenodd" stroke-width="2"></path><path fill="#ffb9ec" d="M168.69322916666664 95.41822916666666C177.3395833333333 102.51458333333333 183.21041666666667 112.97708333333333 184.22447916666664 124.97604166666666L188.02239583333332 169.9109375C190.00729166666665 193.39635416666667 172.66458333333333 214.18697916666665 149.0817708333333 216.1796875L87.38541666666666 221.39479166666666C77.3 222.24739583333334 67.76510416666666 219.51874999999998 59.99791666666667 214.28125L89.77916666666667 236.01458333333332C97.20885416666667 240.51666666666665 106.078125 242.79947916666666 115.41822916666666 242.009375L177.11458333333331 236.79479166666664C200.6984375 234.80156249999996 218.04114583333333 214.01093749999998 216.05572916666665 190.52604166666669L212.2578125 145.590625C211.24322916666665 133.59166666666667 205.37239583333331 123.12916666666665 196.725 116.03229166666665L168.69322916666664 95.41822916666666Z" stroke-width="2"></path><path fill="#ffb9ec" d="M57.42343749999999 212.40260416666666L57.421875 212.40104166666666Z" stroke-width="2"></path><path fill="#e38414" d="M149.60052083333332 144.16197916666664L71.19739583333333 150.78854166666665L43.16354166666666 130.1734375L141.12708333333333 121.89375C144.65156249999998 121.59583333333332 147.91666666666666 124.23854166666666 148.2359375 128.01614583333333L149.60052083333332 144.16197916666664Z" stroke-width="2"></path><path fill="#ffb9ec" d="M171.75729166666667 43.84010416666666L168.71406249999998 7.836979166666666L196.74791666666664 28.45208333333333L199.79114583333333 64.45572916666667L171.75729166666667 43.84010416666666Z" stroke-width="2"></path><path fill="#e38414" d="M73.05572916666667 52.18177083333333L171.73020833333334 43.84166666666667L199.76302083333334 64.45677083333334L101.08906249999998 72.796875L73.05572916666667 52.18177083333333Z" stroke-width="2"></path><path fill="#e38414" d="M102.46354166666666 88.90104166666666L76.37760416666666 91.10572916666666L73.05572916666667 52.17968749999999L101.08906249999998 72.79479166666665L102.46354166666666 88.90104166666666Z" stroke-width="2"></path><path stroke="#000000" stroke-linecap="square" stroke-linejoin="round" d="M33.789583333333326 19.240104166666665L168.709375 7.836458333333333L171.7520833333333 43.83958333333333L73.07760416666666 52.17968749999999L76.39947916666667 91.10520833333334L138.08645833333333 85.89166666666665C161.6755208333333 83.89791666666666 182.25677083333332 101.49427083333332 184.24166666666667 124.97447916666667L188.03958333333333 169.90937499999998C190.02447916666665 193.3953125 172.68229166666666 214.18489583333331 149.09895833333331 216.17864583333335L87.40208333333332 221.39322916666666C63.813541666666666 223.38697916666666 43.23177083333333 205.7911458333333 41.24739583333333 182.31041666666664L40.086979166666666 168.584375L76.09010416666666 165.54114583333333L77.25052083333333 179.26770833333333C77.56979166666666 183.0453125 80.83541666666666 185.6880208333333 84.35885416666666 185.39010416666667L146.05520833333333 180.1755208333333C149.58489583333332 179.87708333333333 152.3552083333333 176.72447916666667 152.03645833333331 172.95260416666665L148.23854166666666 128.01770833333333C147.91875 124.24010416666665 144.65364583333331 121.59739583333332 141.1296875 121.89531249999999L43.16614583333333 130.17499999999998L33.789583333333326 19.240104166666665Z" clip-rule="evenodd" stroke-width="2"></path><path stroke="#000000" stroke-linecap="round" stroke-linejoin="round" d="M57.42343749999999 212.40260416666666L57.421875 212.40104166666666M168.69322916666664 95.41822916666666C177.3395833333333 102.51458333333333 183.21041666666667 112.97708333333333 184.22447916666664 124.97604166666666L188.02239583333332 169.9109375C190.00729166666665 193.39635416666667 172.66458333333333 214.18697916666665 149.0817708333333 216.1796875L87.38541666666666 221.39479166666666C77.3 222.24739583333334 67.76510416666666 219.51874999999998 59.99791666666667 214.28125L89.77916666666667 236.01458333333332C97.20885416666667 240.51666666666665 106.078125 242.79947916666666 115.41822916666666 242.009375L177.11458333333331 236.79479166666664C200.6984375 234.80156249999996 218.04114583333333 214.01093749999998 216.05572916666665 190.52604166666669L212.2578125 145.590625C211.24322916666665 133.59166666666667 205.37239583333331 123.12916666666665 196.725 116.03229166666665L168.69322916666664 95.41822916666666Z" stroke-width="2"></path><path stroke="#000000" stroke-linecap="square" stroke-linejoin="round" d="M149.60052083333332 144.16197916666664L71.19739583333333 150.78854166666665L43.16354166666666 130.1734375L141.12708333333333 121.89375C144.65156249999998 121.59583333333332 147.91666666666666 124.23854166666666 148.2359375 128.01614583333333L149.60052083333332 144.16197916666664Z" stroke-width="2"></path><path stroke="#000000" stroke-linecap="square" stroke-linejoin="round" d="M171.75729166666667 43.84010416666666L168.71406249999998 7.836979166666666L196.74791666666664 28.45208333333333L199.79114583333333 64.45572916666667L171.75729166666667 43.84010416666666Z" stroke-width="2"></path><path stroke="#000000" stroke-linecap="square" stroke-linejoin="round" d="M73.05572916666667 52.18177083333333L171.73020833333334 43.84166666666667L199.76302083333334 64.45677083333334L101.08906249999998 72.796875L73.05572916666667 52.18177083333333Z" stroke-width="2"></path><path stroke="#000000" stroke-linecap="square" stroke-linejoin="round" d="M102.46354166666666 88.90104166666666L76.37760416666666 91.10572916666666L73.05572916666667 52.17968749999999L101.08906249999998 72.79479166666665L102.46354166666666 88.90104166666666Z" stroke-width="2"></path></svg>