<svg xmlns="http://www.w3.org/2000/svg" fill="none" viewBox="0 0 250 250" id="Number-2-Two--Streamline-Retro.svg" height="250" width="250"><desc>Number 2 Two Streamline Element: https://streamlinehq.com</desc><path fill="#89dcff" fill-rule="evenodd" d="M56.59583333333333 42.45260416666667C59.97083333333333 20.19739583333333 80.79635416666666 5.055729166666667 102.95 8.415104166666666L162.95364583333333 17.513541666666665C185.10052083333332 20.871874999999996 200.50989583333333 41.493229166666666 197.134375 63.75520833333333L192.05364583333332 97.26249999999999C189.62656249999998 113.26770833333332 177.91562499999998 126.23541666666667 162.31822916666664 130.38437499999998L78.41510416666667 152.70208333333332C75.9046875 153.37031249999998 74.10989583333334 155.4203125 73.73958333333333 157.85833333333332L72.41302083333333 166.60677083333331L179.0859375 182.7817708333333L173.95052083333331 216.64635416666664L33.41354166666667 195.33645833333335L39.87552083333333 152.7234375C42.30208333333333 136.71875 54.01302083333333 123.75052083333334 69.61093749999999 119.60208333333333L153.51354166666664 97.28333333333333C156.02447916666665 96.61614583333333 157.81927083333332 94.565625 158.18906249999998 92.12760416666667L163.2703125 58.62083333333333C163.78177083333333 55.244270833333324 161.44635416666665 51.928125 157.81875 51.378125L97.81510416666666 42.279687499999994C94.19427083333333 41.73020833333333 90.97343749999999 44.204166666666666 90.4609375 47.58749999999999L88.07499999999999 63.32083333333333L54.21041666666667 58.18541666666666L56.59583333333333 42.45260416666667Z" clip-rule="evenodd" stroke-width="2"></path><path fill="#f11f9d" d="M33.41770833333333 195.33385416666667L173.95520833333333 216.64374999999998L192.93489583333334 242.04947916666666L52.39843749999999 220.7390625L33.41770833333333 195.33385416666667Z" stroke-width="2"></path><path fill="#ffb9aa" d="M173.95624999999998 216.64635416666664L179.09114583333331 182.7817708333333L198.07135416666665 208.18697916666665L192.9359375 242.0515625L173.95624999999998 216.64635416666664Z" stroke-width="2"></path><path fill="#ffb9aa" d="M115.87083333333332 173.20104166666667L181.30625 155.79479166666667C196.90416666666664 151.64635416666667 208.6140625 138.67916666666667 211.04114583333333 122.67343749999999L216.12187499999996 89.16666666666667C217.57083333333333 79.61302083333334 215.55989583333334 70.36093749999999 211.04114583333333 62.64635416666666L192.61666666666665 38.22083333333333C196.7421875 45.73333333333333 198.5296875 54.60833333333333 197.1421875 63.7609375L192.0609375 97.26822916666666C189.63437499999998 113.2734375 177.92343749999998 126.24114583333332 162.32604166666664 130.39010416666667L78.42239583333333 152.70833333333331C75.91197916666667 153.37604166666665 74.11666666666666 155.42604166666666 73.74739583333333 157.86458333333331L72.42083333333333 166.61249999999998L115.87083333333332 173.20104166666667Z" stroke-width="2"></path><path fill="#f11f9d" d="M54.22291666666666 58.1796875L88.0875 63.31458333333333L107.06718749999999 88.7203125L73.203125 83.58489583333333L54.22291666666666 58.1796875Z" stroke-width="2"></path><path fill="#f11f9d" d="M88.07552083333333 63.32343749999999L90.4609375 47.590624999999996C90.97343749999999 44.20729166666666 94.19479166666666 41.733333333333334 97.815625 42.2828125L157.81875 51.381249999999994C161.44635416666665 51.93125 163.78229166666665 55.24739583333333 163.2703125 58.623437499999994L160.88177083333332 74.37291666666667L116.7953125 67.68802083333333C113.175 67.1390625 109.95416666666667 69.61302083333334 109.44062499999998 72.99583333333332L107.05520833333333 88.72916666666667L88.07499999999999 63.32343749999999Z" stroke-width="2"></path><path stroke="#000000" stroke-linecap="square" stroke-linejoin="round" d="M56.59583333333333 42.45260416666667C59.97083333333333 20.19739583333333 80.79635416666666 5.055729166666667 102.95 8.415104166666666L162.95364583333333 17.513541666666665C185.10052083333332 20.871874999999996 200.50989583333333 41.493229166666666 197.134375 63.75520833333333L192.05364583333332 97.26249999999999C189.62656249999998 113.26770833333332 177.91562499999998 126.23541666666667 162.31822916666664 130.38437499999998L78.41510416666667 152.70208333333332C75.9046875 153.37031249999998 74.10989583333334 155.4203125 73.73958333333333 157.85833333333332L72.41302083333333 166.60677083333331L179.0859375 182.7817708333333L173.95052083333331 216.64635416666664L33.41354166666667 195.33645833333335L39.87552083333333 152.7234375C42.30208333333333 136.71875 54.01302083333333 123.75052083333334 69.61093749999999 119.60208333333333L153.51354166666664 97.28333333333333C156.02447916666665 96.61614583333333 157.81927083333332 94.565625 158.18906249999998 92.12760416666667L163.2703125 58.62083333333333C163.78177083333333 55.244270833333324 161.44635416666665 51.928125 157.81875 51.378125L97.81510416666666 42.279687499999994C94.19427083333333 41.73020833333333 90.97343749999999 44.204166666666666 90.4609375 47.58749999999999L88.07499999999999 63.32083333333333L54.21041666666667 58.18541666666666L56.59583333333333 42.45260416666667Z" clip-rule="evenodd" stroke-width="2"></path><path stroke="#000000" stroke-linecap="square" stroke-linejoin="round" d="M33.41770833333333 195.33385416666667L173.95520833333333 216.64374999999998L192.93489583333334 242.04947916666666L52.39843749999999 220.7390625L33.41770833333333 195.33385416666667Z" stroke-width="2"></path><path stroke="#000000" stroke-linecap="square" stroke-linejoin="round" d="M173.95624999999998 216.64635416666664L179.09114583333331 182.7817708333333L198.07135416666665 208.18697916666665L192.9359375 242.0515625L173.95624999999998 216.64635416666664Z" stroke-width="2"></path><path stroke="#000000" stroke-linecap="square" stroke-linejoin="round" d="M115.87083333333332 173.20104166666667L181.30625 155.79479166666667C196.90416666666664 151.64635416666667 208.6140625 138.67916666666667 211.04114583333333 122.67343749999999L216.12187499999996 89.16666666666667C217.57083333333333 79.61302083333334 215.55989583333334 70.36093749999999 211.04114583333333 62.64635416666666L192.61666666666665 38.22083333333333C196.7421875 45.73333333333333 198.5296875 54.60833333333333 197.1421875 63.7609375L192.0609375 97.26822916666666C189.63437499999998 113.2734375 177.92343749999998 126.24114583333332 162.32604166666664 130.39010416666667L78.42239583333333 152.70833333333331C75.91197916666667 153.37604166666665 74.11666666666666 155.42604166666666 73.74739583333333 157.86458333333331L72.42083333333333 166.61249999999998L115.87083333333332 173.20104166666667Z" stroke-width="2"></path><path stroke="#000000" stroke-linecap="square" stroke-linejoin="round" d="M54.22291666666666 58.1796875L88.0875 63.31458333333333L107.06718749999999 88.7203125L73.203125 83.58489583333333L54.22291666666666 58.1796875Z" stroke-width="2"></path><path stroke="#000000" stroke-linecap="square" stroke-linejoin="round" d="M88.07552083333333 63.32343749999999L90.4609375 47.590624999999996C90.97343749999999 44.20729166666666 94.19479166666666 41.733333333333334 97.815625 42.2828125L157.81875 51.381249999999994C161.44635416666665 51.93125 163.78229166666665 55.24739583333333 163.2703125 58.623437499999994L160.88177083333332 74.37291666666667L116.7953125 67.68802083333333C113.175 67.1390625 109.95416666666667 69.61302083333334 109.44062499999998 72.99583333333332L107.05520833333333 88.72916666666667L88.07499999999999 63.32343749999999Z" stroke-width="2"></path></svg>