<svg xmlns="http://www.w3.org/2000/svg" fill="none" viewBox="0 0 250 250" id="Number-3-Three--Streamline-Retro.svg" height="250" width="250"><desc>Number 3 Three Streamline Element: https://streamlinehq.com</desc><path fill="#ffb9ec" fill-rule="evenodd" d="M90.3171875 36.31770833333333L144.653125 28.832291666666666C168.20364583333333 25.58802083333333 189.9265625 42.0484375 193.17135416666667 65.60052083333333L197.05364583333332 93.78385416666666C198.03645833333334 100.91666666666667 197.21145833333333 107.88177083333333 194.93020833333333 114.21666666666667C203.34947916666667 120.86406249999999 209.31041666666667 130.64895833333333 210.890625 142.11927083333333L216.71458333333334 184.39427083333334C219.95885416666667 207.9453125 203.49687499999996 229.66770833333334 179.94479166666665 232.9125L116.54166666666667 241.646875C92.99010416666665 244.89166666666665 71.26718749999999 228.42916666666667 68.02291666666666 204.87760416666666L64.56458333333333 179.77083333333331L100.53802083333333 174.81510416666666L103.996875 199.92187499999997C104.50416666666666 203.60572916666666 107.90208333333332 206.18072916666665 111.58593749999999 205.67343749999998L174.98958333333331 196.93906249999998C178.6734375 196.43124999999998 181.24791666666664 193.0333333333333 180.74062499999997 189.34947916666667L174.91718749999998 147.07447916666666C174.41041666666666 143.39635416666667 171.01822916666669 140.82083333333333 167.32916666666668 141.32916666666665L137.42552083333334 145.4484375L132.46979166666665 109.47447916666667L155.33333333333334 106.325C159.01510416666665 105.81822916666665 161.58749999999998 102.42552083333334 161.08020833333333 98.73906249999999L157.19791666666666 70.55677083333333C156.69062499999998 66.87395833333333 153.29322916666666 64.29895833333333 149.60885416666667 64.80624999999999L95.2734375 72.29166666666667C91.5890625 72.79895833333333 89.01406249999998 76.19687499999999 89.52187499999998 79.88020833333333L92.5265625 101.68906249999999L56.55260416666667 106.64531249999999L53.547916666666666 84.83645833333333C50.303645833333334 61.284375 66.76614583333333 39.56197916666667 90.3171875 36.31770833333333Z" clip-rule="evenodd" stroke-width="2"></path><path fill="#2685f5" d="M117.14739583333333 124.97239583333334L112.1921875 88.99791666666665L132.45208333333332 109.48229166666667L137.40833333333333 145.45572916666666L117.14739583333333 124.97239583333334Z" stroke-width="2"></path><path fill="#2685f5" d="M140.80208333333331 78.25833333333333L139.14739583333332 66.24791666666667L149.59114583333331 64.809375C153.27552083333333 64.3015625 156.67291666666665 66.87708333333333 157.18020833333333 70.55989583333333L161.0625 98.7421875C161.57083333333333 102.42864583333332 158.99739583333331 105.82083333333333 155.3161458333333 106.32812499999999L132.45260416666667 109.47760416666667L112.1921875 88.99427083333333L135.05572916666668 85.84427083333333C138.73697916666666 85.33697916666665 141.30989583333331 81.94427083333333 140.80208333333331 78.25833333333333Z" stroke-width="2"></path><path fill="#2685f5" d="M160.48125 168.86875L156.88593749999998 142.77135416666664L167.32916666666668 141.33229166666666C171.01874999999998 140.82447916666666 174.4109375 143.39895833333333 174.91822916666666 147.07760416666667L180.74166666666665 189.353125C181.24895833333332 193.03645833333334 178.6739583333333 196.434375 174.99010416666667 196.94166666666666L111.58645833333334 205.67604166666666C107.90260416666666 206.18385416666666 104.5046875 203.60885416666665 103.99791666666667 199.92499999999998L101.76979166666666 183.75312499999998L154.7296875 176.45833333333334C158.41354166666667 175.95000000000002 160.98854166666666 172.55260416666664 160.48125 168.86875Z" stroke-width="2"></path><path fill="#94e986" d="M70.0546875 15.838541666666666L124.39062499999999 8.353124999999999C136.44427083333332 6.692708333333332 148.0192708333333 10.19375 156.88333333333333 17.16614583333333L179.45260416666667 39.600520833333334C170.34427083333333 31.344791666666666 157.78177083333333 27.028125 144.65104166666666 28.836979166666662L90.31562499999998 36.32239583333333C66.76354166666667 39.56666666666666 50.301562499999996 61.289583333333326 53.54583333333333 84.840625L56.55052083333333 106.64947916666667L36.290104166666666 86.16614583333333L33.28541666666666 64.35677083333333C30.04114583333333 40.80520833333333 46.503125 19.0828125 70.0546875 15.838541666666666Z" stroke-width="2"></path><path fill="#94e986" d="M80.28385416666666 154.33333333333334L100.54479166666667 174.8171875L64.5703125 179.77291666666665L44.309895833333336 159.2890625L80.28385416666666 154.33333333333334Z" stroke-width="2"></path><path fill="#94e986" d="M47.76875 184.39583333333334L44.309895833333336 159.2890625L64.5703125 179.77291666666665L68.02916666666667 204.88020833333334C68.63749999999999 209.29218749999998 69.89322916666666 213.45572916666666 71.68906249999999 217.2875C74.25677083333333 222.49218749999997 77.05520833333334 226.07135416666668 78.546875 227.66249999999997L79.09322916666666 228.21354166666666C78.93958333333333 228.06979166666665 78.75625 227.88593749999998 78.546875 227.66249999999997L58.8265625 207.77291666666667C53.02604166666666 201.52031249999996 49.020833333333336 193.48645833333333 47.76875 184.39583333333334Z" stroke-width="2"></path><path stroke="#000000" stroke-linecap="square" stroke-linejoin="round" d="M90.3171875 36.31770833333333L144.653125 28.832291666666666C168.20364583333333 25.58802083333333 189.9265625 42.0484375 193.17135416666667 65.60052083333333L197.05364583333332 93.78385416666666C198.03645833333334 100.91666666666667 197.21145833333333 107.88177083333333 194.93020833333333 114.21666666666667C203.34947916666667 120.86406249999999 209.31041666666667 130.64895833333333 210.890625 142.11927083333333L216.71458333333334 184.39427083333334C219.95885416666667 207.9453125 203.49687499999996 229.66770833333334 179.94479166666665 232.9125L116.54166666666667 241.646875C92.99010416666665 244.89166666666665 71.26718749999999 228.42916666666667 68.02291666666666 204.87760416666666L64.56458333333333 179.77083333333331L100.53802083333333 174.81510416666666L103.996875 199.92187499999997C104.50416666666666 203.60572916666666 107.90208333333332 206.18072916666665 111.58593749999999 205.67343749999998L174.98958333333331 196.93906249999998C178.6734375 196.43124999999998 181.24791666666664 193.0333333333333 180.74062499999997 189.34947916666667L174.91718749999998 147.07447916666666C174.41041666666666 143.39635416666667 171.01822916666669 140.82083333333333 167.32916666666668 141.32916666666665L137.42552083333334 145.4484375L132.46979166666665 109.47447916666667L155.33333333333334 106.325C159.01510416666665 105.81822916666665 161.58749999999998 102.42552083333334 161.08020833333333 98.73906249999999L157.19791666666666 70.55677083333333C156.69062499999998 66.87395833333333 153.29322916666666 64.29895833333333 149.60885416666667 64.80624999999999L95.2734375 72.29166666666667C91.5890625 72.79895833333333 89.01406249999998 76.19687499999999 89.52187499999998 79.88020833333333L92.5265625 101.68906249999999L56.55260416666667 106.64531249999999L53.547916666666666 84.83645833333333C50.303645833333334 61.284375 66.76614583333333 39.56197916666667 90.3171875 36.31770833333333Z" clip-rule="evenodd" stroke-width="2"></path><path stroke="#000000" stroke-linecap="square" stroke-linejoin="round" d="M117.14739583333333 124.97239583333334L112.1921875 88.99791666666665L132.45208333333332 109.48229166666667L137.40833333333333 145.45572916666666L117.14739583333333 124.97239583333334Z" stroke-width="2"></path><path stroke="#000000" stroke-linecap="square" stroke-linejoin="round" d="M140.80208333333331 78.25833333333333L139.14739583333332 66.24791666666667L149.59114583333331 64.809375C153.27552083333333 64.3015625 156.67291666666665 66.87708333333333 157.18020833333333 70.55989583333333L161.0625 98.7421875C161.57083333333333 102.42864583333332 158.99739583333331 105.82083333333333 155.3161458333333 106.32812499999999L132.45260416666667 109.47760416666667L112.1921875 88.99427083333333L135.05572916666668 85.84427083333333C138.73697916666666 85.33697916666665 141.30989583333331 81.94427083333333 140.80208333333331 78.25833333333333Z" stroke-width="2"></path><path stroke="#000000" stroke-linecap="square" stroke-linejoin="round" d="M160.48125 168.86875L156.88593749999998 142.77135416666664L167.32916666666668 141.33229166666666C171.01874999999998 140.82447916666666 174.4109375 143.39895833333333 174.91822916666666 147.07760416666667L180.74166666666665 189.353125C181.24895833333332 193.03645833333334 178.6739583333333 196.434375 174.99010416666667 196.94166666666666L111.58645833333334 205.67604166666666C107.90260416666666 206.18385416666666 104.5046875 203.60885416666665 103.99791666666667 199.92499999999998L101.76979166666666 183.75312499999998L154.7296875 176.45833333333334C158.41354166666667 175.95000000000002 160.98854166666666 172.55260416666664 160.48125 168.86875Z" stroke-width="2"></path><path stroke="#000000" stroke-linecap="square" stroke-linejoin="round" d="M70.0546875 15.838541666666666L124.39062499999999 8.353124999999999C136.44427083333332 6.692708333333332 148.0192708333333 10.19375 156.88333333333333 17.16614583333333L179.45260416666667 39.600520833333334C170.34427083333333 31.344791666666666 157.78177083333333 27.028125 144.65104166666666 28.836979166666662L90.31562499999998 36.32239583333333C66.76354166666667 39.56666666666666 50.301562499999996 61.289583333333326 53.54583333333333 84.840625L56.55052083333333 106.64947916666667L36.290104166666666 86.16614583333333L33.28541666666666 64.35677083333333C30.04114583333333 40.80520833333333 46.503125 19.0828125 70.0546875 15.838541666666666Z" stroke-width="2"></path><path stroke="#000000" stroke-linecap="square" stroke-linejoin="round" d="M80.28385416666666 154.33333333333334L100.54479166666667 174.8171875L64.5703125 179.77291666666665L44.309895833333336 159.2890625L80.28385416666666 154.33333333333334Z" stroke-width="2"></path><path stroke="#000000" stroke-linecap="square" stroke-linejoin="round" d="M44.309895833333336 159.2890625L47.76875 184.39583333333334C49.020833333333336 193.48645833333333 53.02604166666666 201.52031249999996 58.8265625 207.77291666666667L79.09322916666666 228.21354166666666C77.8453125 227.04479166666664 74.61718749999999 223.2223958333333 71.68906249999999 217.2875C69.89322916666666 213.45572916666666 68.63749999999999 209.29218749999998 68.02916666666667 204.88020833333334L64.5703125 179.77291666666665L44.309895833333336 159.2890625Z" stroke-width="2"></path><path stroke="#000000" stroke-linejoin="round" d="M158.29375 170.9765625L180.79947916666669 196.65260416666666" stroke-width="2"></path></svg>