<svg xmlns="http://www.w3.org/2000/svg" fill="none" viewBox="0 0 250 250" id="Number-4-Four--Streamline-Retro.svg" height="250" width="250"><desc>Number 4 Four Streamline Element: https://streamlinehq.com</desc><path fill="#ffb9aa" fill-rule="evenodd" d="M184.47760416666665 12.647395833333333L228.07187499999998 18.847916666666663L208.459375 156.73854166666666L238.58020833333333 161.02239583333332L233.01666666666662 200.14010416666667L202.89583333333334 195.85572916666666L196.35885416666665 241.81927083333332L157.24114583333332 236.25520833333331L163.77864583333331 190.29218749999998L43.29583333333333 173.15572916666665L49.28854166666667 131.02135416666664L184.47760416666665 12.647395833333333ZM169.3421875 151.17447916666666L181.16197916666664 68.06822916666667L97.86145833333333 141.0078125L169.3421875 151.17447916666666Z" clip-rule="evenodd" stroke-width="2"></path><path fill="#89dcff" d="M157.20833333333334 236.25416666666663L163.74531249999998 190.2911458333333L131.88333333333333 185.82239583333333L125.34635416666667 231.78541666666666L157.20833333333334 236.25416666666663Z" stroke-width="2"></path><path fill="#89dcff" d="M144.0375 100.56562499999998L137.48489583333333 146.63802083333331L169.33749999999998 151.16875L181.15833333333333 68.0625L144.0375 100.56562499999998Z" stroke-width="2"></path><path fill="#ffce51" d="M43.28177083333333 173.1598958333333L49.27447916666666 131.02552083333333L17.412499999999998 126.55677083333333L11.419791666666667 168.69062499999998L43.28177083333333 173.1598958333333Z" stroke-width="2"></path><path fill="#ffce51" d="M184.39947916666665 12.703645833333331L152.6 8.180729166666666L17.4109375 126.55520833333333L49.27291666666666 131.02395833333333L184.39947916666665 12.703645833333331Z" stroke-width="2"></path><path stroke="#000000" stroke-linecap="square" stroke-linejoin="round" d="M184.47760416666665 12.647395833333333L228.07187499999998 18.847916666666663L208.459375 156.73854166666666L238.58020833333333 161.02239583333332L233.01666666666662 200.14010416666667L202.89583333333334 195.85572916666666L196.35885416666665 241.81927083333332L157.24114583333332 236.25520833333331L163.77864583333331 190.29218749999998L43.29583333333333 173.15572916666665L49.28854166666667 131.02135416666664L184.47760416666665 12.647395833333333ZM169.3421875 151.17447916666666L181.16197916666664 68.06822916666667L97.86145833333333 141.0078125L169.3421875 151.17447916666666Z" clip-rule="evenodd" stroke-width="2"></path><path stroke="#000000" stroke-linecap="square" stroke-linejoin="round" d="M157.20833333333334 236.25416666666663L163.74531249999998 190.2911458333333L131.88333333333333 185.82239583333333L125.34635416666667 231.78541666666666L157.20833333333334 236.25416666666663Z" stroke-width="2"></path><path stroke="#000000" stroke-linecap="square" stroke-linejoin="round" d="M144.0375 100.56562499999998L137.48489583333333 146.63802083333331L169.33749999999998 151.16875L181.15833333333333 68.0625L144.0375 100.56562499999998Z" stroke-width="2"></path><path stroke="#000000" stroke-linecap="square" stroke-linejoin="round" d="M43.28177083333333 173.1598958333333L49.27447916666666 131.02552083333333L17.412499999999998 126.55677083333333L11.419791666666667 168.69062499999998L43.28177083333333 173.1598958333333Z" stroke-width="2"></path><path stroke="#000000" stroke-linecap="square" stroke-linejoin="round" d="M184.39947916666665 12.703645833333331L152.6 8.180729166666666L17.4109375 126.55520833333333L49.27291666666666 131.02395833333333L184.39947916666665 12.703645833333331Z" stroke-width="2"></path></svg>