<svg width="150" height="150" viewBox="0 0 150 150" fill="none" xmlns="http://www.w3.org/2000/svg">
<path d="M131.25 93.75L111.962 74.4625C109.618 72.1191 106.44 70.8027 103.125 70.8027C99.8104 70.8027 96.6316 72.1191 94.2875 74.4625L37.5 131.25M31.25 18.75H118.75C125.654 18.75 131.25 24.3464 131.25 31.25V118.75C131.25 125.654 125.654 131.25 118.75 131.25H31.25C24.3464 131.25 18.75 125.654 18.75 118.75V31.25C18.75 24.3464 24.3464 18.75 31.25 18.75ZM68.75 56.25C68.75 63.1536 63.1536 68.75 56.25 68.75C49.3464 68.75 43.75 63.1536 43.75 56.25C43.75 49.3464 49.3464 43.75 56.25 43.75C63.1536 43.75 68.75 49.3464 68.75 56.25Z" stroke="#939393" stroke-width="2" stroke-linecap="round" stroke-linejoin="round"/>
</svg>
