<svg width="274" height="46" viewBox="0 0 274 46" fill="none" xmlns="http://www.w3.org/2000/svg">
<path d="M2.46875 21.7531C2.46875 24.0079 2.91285 26.2404 3.77569 28.3236C4.63853 30.4066 5.90322 32.2994 7.49755 33.8937C9.09187 35.488 10.9846 36.7527 13.0677 37.6156C15.1508 38.4784 17.3834 38.9225 19.6381 38.9225C21.8928 38.9225 24.1255 38.4784 26.2086 37.6156C28.2916 36.7527 30.1843 35.488 31.7787 33.8937C33.3731 32.2994 34.6377 30.4066 35.5005 28.3236C36.3634 26.2404 36.8075 24.0079 36.8075 21.7531C36.8075 19.4984 36.3634 17.2658 35.5005 15.1827C34.6377 13.0996 33.3731 11.2069 31.7787 9.61257C30.1843 8.01822 28.2916 6.75353 26.2086 5.89068C24.1255 5.02784 21.8928 4.58374 19.6381 4.58374C17.3834 4.58374 15.1508 5.02784 13.0677 5.89068C10.9846 6.75353 9.09187 8.01822 7.49755 9.61257C5.90322 11.2069 4.63853 13.0996 3.77569 15.1827C2.91285 17.2658 2.46875 19.4984 2.46875 21.7531Z" fill="#94E986"/>
<path d="M43.7197 23.5587C43.7197 33.0411 36.0327 40.7282 26.5502 40.7282L16.9982 38.7214C17.8588 38.8542 18.7406 38.9231 19.6384 38.9231C29.1208 38.9231 36.8079 31.2361 36.8079 21.7536C36.8079 13.8974 31.5313 7.27352 24.3289 5.23267L31.477 7.1065C38.5583 9.22404 43.7197 15.7886 43.7197 23.5587Z" fill="#FFBD92"/>
<path d="M2.46875 21.7531C2.46875 24.0079 2.91285 26.2404 3.77569 28.3236C4.63853 30.4066 5.90322 32.2994 7.49755 33.8937C9.09187 35.488 10.9846 36.7527 13.0677 37.6156C15.1508 38.4784 17.3834 38.9225 19.6381 38.9225C21.8928 38.9225 24.1255 38.4784 26.2086 37.6156C28.2916 36.7527 30.1843 35.488 31.7787 33.8937C33.3731 32.2994 34.6377 30.4066 35.5005 28.3236C36.3634 26.2404 36.8075 24.0079 36.8075 21.7531C36.8075 19.4984 36.3634 17.2658 35.5005 15.1827C34.6377 13.0996 33.3731 11.2069 31.7787 9.61257C30.1843 8.01822 28.2916 6.75353 26.2086 5.89068C24.1255 5.02784 21.8928 4.58374 19.6381 4.58374C17.3834 4.58374 15.1508 5.02784 13.0677 5.89068C10.9846 6.75353 9.09187 8.01822 7.49755 9.61257C5.90322 11.2069 4.63853 13.0996 3.77569 15.1827C2.91285 17.2658 2.46875 19.4984 2.46875 21.7531Z" stroke="black" stroke-width="2"/>
<path d="M43.7197 23.5587C43.7197 33.0411 36.0327 40.7282 26.5502 40.7282L16.9982 38.7214C17.8588 38.8542 18.7406 38.9231 19.6384 38.9231C29.1208 38.9231 36.8079 31.2361 36.8079 21.7536C36.8079 13.8974 31.5313 7.27352 24.3289 5.23267L31.477 7.1065C38.5583 9.22404 43.7197 15.7886 43.7197 23.5587Z" stroke="black" stroke-width="2"/>
<path d="M10.0072 21.8412C10.0072 24.0959 10.2563 26.3286 10.7402 28.4117C11.2242 30.4947 11.9336 32.3875 12.8278 33.9819C13.722 35.5762 14.7836 36.8409 15.952 37.7036C17.1203 38.5665 18.3726 39.0106 19.6372 39.0106C20.9019 39.0106 22.1541 38.5665 23.3224 37.7036C24.4908 36.8409 25.5525 35.5762 26.4466 33.9819C27.3409 32.3875 28.0502 30.4947 28.5342 28.4117C29.0181 26.3286 29.2672 24.0959 29.2672 21.8412C29.2672 19.5865 29.0181 17.3539 28.5342 15.2709C28.0502 13.1877 27.3409 11.295 26.4466 9.7007C25.5525 8.10634 24.4908 6.84165 23.3224 5.97882C22.1541 5.11597 20.9019 4.67188 19.6372 4.67188C18.3726 4.67188 17.1203 5.11597 15.952 5.97882C14.7836 6.84165 13.722 8.10634 12.8278 9.7007C11.9336 11.295 11.2242 13.1877 10.7402 15.2709C10.2563 17.3539 10.0072 19.5865 10.0072 21.8412Z" stroke="black" stroke-width="2"/>
<path d="M19.6385 4.67236V38.8353" stroke="black" stroke-width="2" stroke-linejoin="round"/>
<path d="M36.7186 21.7532H2.55566" stroke="black" stroke-width="2" stroke-linejoin="round"/>
<path d="M34.4298 12.9038H4.84546" stroke="black" stroke-width="2" stroke-linejoin="round"/>
<path d="M34.4298 30.4692H4.84546" stroke="black" stroke-width="2" stroke-linejoin="round"/>
<path d="M60.785 32.0311L52.8575 13.6561H57.4513L64.3813 29.9311H61.6775L68.7125 13.6561H72.9388L64.985 32.0311H60.785ZM80.5105 32.3461C79.0405 32.3461 77.6317 32.1536 76.2843 31.7686C74.9367 31.3661 73.8517 30.8498 73.0293 30.2198L74.473 27.0173C75.2605 27.5773 76.188 28.0411 77.2555 28.4086C78.3405 28.7585 79.4343 28.9336 80.5368 28.9336C81.3768 28.9336 82.0504 28.8548 82.558 28.6973C83.083 28.5223 83.4679 28.286 83.713 27.9886C83.958 27.6911 84.0805 27.3498 84.0805 26.9648C84.0805 26.4748 83.8879 26.0898 83.503 25.8098C83.118 25.5123 82.6105 25.2761 81.9805 25.1011C81.3505 24.9086 80.6505 24.7336 79.8805 24.5761C79.128 24.401 78.3667 24.191 77.5968 23.9461C76.8442 23.7011 76.153 23.3861 75.523 23.0011C74.893 22.616 74.3767 22.1086 73.9743 21.4786C73.5892 20.8486 73.3968 20.0435 73.3968 19.0636C73.3968 18.0136 73.6767 17.0598 74.2368 16.2023C74.8143 15.3273 75.6717 14.636 76.8093 14.1286C77.9643 13.6036 79.408 13.3411 81.1405 13.3411C82.2955 13.3411 83.433 13.481 84.553 13.7611C85.673 14.0236 86.6617 14.426 87.5193 14.9686L86.2068 18.1973C85.3492 17.7073 84.4917 17.3486 83.6343 17.1211C82.7767 16.8761 81.9367 16.7536 81.1143 16.7536C80.2917 16.7536 79.618 16.8498 79.093 17.0423C78.568 17.2348 78.1917 17.4886 77.9643 17.8036C77.7367 18.101 77.623 18.4511 77.623 18.8536C77.623 19.3261 77.8155 19.7111 78.2005 20.0086C78.5855 20.2886 79.093 20.516 79.723 20.6911C80.353 20.8661 81.0442 21.041 81.7968 21.2161C82.5667 21.3911 83.328 21.5923 84.0805 21.8198C84.8505 22.0473 85.5505 22.3535 86.1805 22.7386C86.8105 23.1236 87.318 23.6311 87.703 24.2611C88.1055 24.8911 88.3068 25.6873 88.3068 26.6498C88.3068 27.6823 88.018 28.6273 87.4405 29.4848C86.863 30.3423 85.9968 31.0336 84.8418 31.5586C83.7042 32.0836 82.2604 32.3461 80.5105 32.3461ZM91.2124 32.0311V13.6561H95.465V28.5661H104.679V32.0311H91.2124Z" fill="#FFBD92"/>
<path d="M109.143 32.0311V17.1211H103.263V13.6561H119.276V17.1211H113.396V32.0311H109.143ZM120.968 32.0311V17.9086H124.879V21.8986L124.328 20.7436C124.748 19.7461 125.421 18.9935 126.349 18.4861C127.276 17.9611 128.405 17.6986 129.735 17.6986V21.4786C129.56 21.461 129.403 21.4523 129.263 21.4523C129.122 21.4348 128.974 21.4261 128.817 21.4261C127.696 21.4261 126.786 21.7498 126.087 22.3973C125.404 23.0273 125.063 24.0161 125.063 25.3636V32.0311H120.968ZM139.91 32.0311V29.2748L139.648 28.6711V23.7361C139.648 22.8611 139.376 22.1786 138.834 21.6886C138.309 21.1985 137.495 20.9536 136.393 20.9536C135.64 20.9536 134.896 21.0761 134.161 21.3211C133.443 21.5486 132.831 21.8636 132.324 22.2661L130.854 19.4048C131.623 18.8623 132.551 18.4423 133.636 18.1448C134.721 17.8473 135.823 17.6986 136.944 17.6986C139.096 17.6986 140.767 18.206 141.958 19.2211C143.147 20.2361 143.743 21.8198 143.743 23.9723V32.0311H139.91ZM135.605 32.2411C134.503 32.2411 133.558 32.0573 132.77 31.6898C131.983 31.3048 131.379 30.7886 130.959 30.1411C130.539 29.4935 130.329 28.7673 130.329 27.9623C130.329 27.1223 130.529 26.3873 130.933 25.7573C131.353 25.1273 132.009 24.6373 132.901 24.2873C133.794 23.9198 134.957 23.7361 136.393 23.7361H140.146V26.1248H136.839C135.876 26.1248 135.211 26.2823 134.844 26.5973C134.493 26.9123 134.319 27.3061 134.319 27.7786C134.319 28.3036 134.519 28.7236 134.923 29.0386C135.343 29.336 135.911 29.4848 136.629 29.4848C137.311 29.4848 137.923 29.3273 138.466 29.0123C139.008 28.6798 139.402 28.1986 139.648 27.5686L140.278 29.4586C139.979 30.3686 139.438 31.0598 138.65 31.5323C137.863 32.0048 136.847 32.2411 135.605 32.2411ZM156.032 17.6986C157.153 17.6986 158.15 17.9261 159.025 18.3811C159.917 18.8186 160.618 19.5011 161.125 20.4286C161.632 21.3386 161.886 22.511 161.886 23.9461V32.0311H157.791V24.5761C157.791 23.4386 157.537 22.5986 157.03 22.0561C156.539 21.5135 155.84 21.2423 154.93 21.2423C154.282 21.2423 153.696 21.3823 153.171 21.6623C152.664 21.9248 152.261 22.3361 151.963 22.8961C151.683 23.456 151.543 24.1736 151.543 25.0486V32.0311H147.449V17.9086H151.36V21.8198L150.625 20.6386C151.132 19.6936 151.858 18.9673 152.803 18.4598C153.748 17.9523 154.825 17.6986 156.032 17.6986ZM170.349 32.2411C169.141 32.2411 167.978 32.1011 166.858 31.8211C165.755 31.5236 164.88 31.1561 164.233 30.7186L165.598 27.7786C166.245 28.181 167.007 28.5136 167.881 28.7761C168.774 29.021 169.649 29.1436 170.506 29.1436C171.451 29.1436 172.117 29.0298 172.501 28.8023C172.904 28.5748 173.105 28.2598 173.105 27.8573C173.105 27.5248 172.948 27.2798 172.633 27.1223C172.335 26.9473 171.933 26.816 171.425 26.7286C170.918 26.6411 170.358 26.5535 169.745 26.4661C169.151 26.3786 168.547 26.2648 167.934 26.1248C167.322 25.9673 166.762 25.7398 166.254 25.4423C165.747 25.1448 165.335 24.7423 165.02 24.2348C164.723 23.7273 164.574 23.0711 164.574 22.2661C164.574 21.3736 164.828 20.5861 165.335 19.9036C165.86 19.2211 166.613 18.6873 167.593 18.3023C168.573 17.8998 169.745 17.6986 171.11 17.6986C172.073 17.6986 173.053 17.8036 174.05 18.0136C175.048 18.2236 175.879 18.5298 176.544 18.9323L175.179 21.8461C174.496 21.4436 173.805 21.1723 173.105 21.0323C172.423 20.8748 171.758 20.7961 171.11 20.7961C170.201 20.7961 169.535 20.9186 169.115 21.1636C168.695 21.4085 168.485 21.7235 168.485 22.1086C168.485 22.4585 168.634 22.721 168.931 22.8961C169.246 23.0711 169.658 23.2111 170.165 23.3161C170.673 23.4211 171.224 23.5173 171.819 23.6048C172.432 23.6748 173.044 23.7886 173.656 23.9461C174.269 24.1036 174.821 24.3311 175.31 24.6286C175.818 24.9086 176.229 25.3023 176.544 25.8098C176.859 26.2998 177.016 26.9473 177.016 27.7523C177.016 28.6273 176.754 29.4061 176.229 30.0886C175.704 30.7535 174.943 31.2785 173.945 31.6636C172.965 32.0486 171.766 32.2411 170.349 32.2411ZM179.543 32.0311V12.5536H183.638V32.0311H179.543ZM196.101 32.0311V29.2748L195.839 28.6711V23.7361C195.839 22.8611 195.568 22.1786 195.025 21.6886C194.5 21.1985 193.686 20.9536 192.583 20.9536C191.831 20.9536 191.087 21.0761 190.352 21.3211C189.635 21.5486 189.022 21.8636 188.515 22.2661L187.045 19.4048C187.814 18.8623 188.743 18.4423 189.827 18.1448C190.912 17.8473 192.014 17.6986 193.135 17.6986C195.287 17.6986 196.959 18.206 198.148 19.2211C199.338 20.2361 199.933 21.8198 199.933 23.9723V32.0311H196.101ZM191.796 32.2411C190.694 32.2411 189.748 32.0573 188.961 31.6898C188.174 31.3048 187.57 30.7886 187.15 30.1411C186.73 29.4935 186.52 28.7673 186.52 27.9623C186.52 27.1223 186.721 26.3873 187.123 25.7573C187.543 25.1273 188.2 24.6373 189.092 24.2873C189.985 23.9198 191.148 23.7361 192.583 23.7361H196.337V26.1248H193.03C192.067 26.1248 191.402 26.2823 191.035 26.5973C190.685 26.9123 190.51 27.3061 190.51 27.7786C190.51 28.3036 190.711 28.7236 191.113 29.0386C191.533 29.336 192.103 29.4848 192.82 29.4848C193.502 29.4848 194.114 29.3273 194.657 29.0123C195.2 28.6798 195.594 28.1986 195.839 27.5686L196.468 29.4586C196.171 30.3686 195.629 31.0598 194.841 31.5323C194.054 32.0048 193.038 32.2411 191.796 32.2411ZM209.414 32.2411C207.752 32.2411 206.458 31.8211 205.529 30.9811C204.602 30.1235 204.138 28.8548 204.138 27.1748V14.7848H208.233V27.1223C208.233 27.7173 208.391 28.181 208.706 28.5136C209.021 28.8286 209.45 28.9861 209.992 28.9861C210.64 28.9861 211.191 28.811 211.646 28.4611L212.748 31.3486C212.328 31.646 211.821 31.8736 211.226 32.0311C210.648 32.171 210.044 32.2411 209.414 32.2411ZM201.959 21.3736V18.2236H211.751V21.3736H201.959ZM221.332 32.2411C219.826 32.2411 218.488 31.9261 217.316 31.2961C216.161 30.6661 215.242 29.8085 214.559 28.7236C213.894 27.6211 213.562 26.3698 213.562 24.9698C213.562 23.5523 213.894 22.301 214.559 21.2161C215.242 20.1136 216.161 19.256 217.316 18.6436C218.488 18.0136 219.826 17.6986 221.332 17.6986C222.819 17.6986 224.149 18.0136 225.322 18.6436C226.494 19.256 227.413 20.1048 228.078 21.1898C228.743 22.2748 229.076 23.5348 229.076 24.9698C229.076 26.3698 228.743 27.6211 228.078 28.7236C227.413 29.8085 226.494 30.6661 225.322 31.2961C224.149 31.9261 222.819 32.2411 221.332 32.2411ZM221.332 28.8811C222.014 28.8811 222.627 28.7236 223.169 28.4086C223.711 28.0936 224.141 27.6473 224.456 27.0698C224.771 26.4748 224.928 25.7748 224.928 24.9698C224.928 24.1473 224.771 23.4473 224.456 22.8698C224.141 22.2923 223.711 21.8461 223.169 21.5311C222.627 21.2161 222.014 21.0586 221.332 21.0586C220.649 21.0586 220.036 21.2161 219.494 21.5311C218.952 21.8461 218.514 22.2923 218.182 22.8698C217.867 23.4473 217.709 24.1473 217.709 24.9698C217.709 25.7748 217.867 26.4748 218.182 27.0698C218.514 27.6473 218.952 28.0936 219.494 28.4086C220.036 28.7236 220.649 28.8811 221.332 28.8811ZM231.812 32.0311V17.9086H235.723V21.8986L235.172 20.7436C235.592 19.7461 236.266 18.9935 237.194 18.4861C238.122 17.9611 239.25 17.6986 240.58 17.6986V21.4786C240.405 21.461 240.248 21.4523 240.107 21.4523C239.968 21.4348 239.818 21.4261 239.661 21.4261C238.542 21.4261 237.631 21.7498 236.931 22.3973C236.249 23.0273 235.907 24.0161 235.907 25.3636V32.0311H231.812ZM244.409 32.2411C243.71 32.2411 243.106 32.0048 242.598 31.5323C242.109 31.0423 241.863 30.4211 241.863 29.6686C241.863 28.916 242.109 28.3123 242.598 27.8573C243.106 27.3848 243.71 27.1486 244.409 27.1486C245.128 27.1486 245.731 27.3848 246.221 27.8573C246.711 28.3123 246.956 28.916 246.956 29.6686C246.956 30.4211 246.711 31.0423 246.221 31.5323C245.731 32.0048 245.128 32.2411 244.409 32.2411ZM249.731 32.0311V17.9086H253.826V32.0311H249.731ZM251.778 15.9398C251.026 15.9398 250.413 15.7211 249.941 15.2836C249.468 14.846 249.232 14.3036 249.232 13.6561C249.232 13.0085 249.468 12.4661 249.941 12.0286C250.413 11.591 251.026 11.3723 251.778 11.3723C252.531 11.3723 253.143 11.5823 253.616 12.0023C254.088 12.4048 254.324 12.9298 254.324 13.5773C254.324 14.2598 254.088 14.8286 253.616 15.2836C253.161 15.7211 252.549 15.9398 251.778 15.9398ZM264.346 32.2411C262.842 32.2411 261.503 31.9261 260.33 31.2961C259.175 30.6661 258.256 29.8085 257.574 28.7236C256.909 27.6211 256.576 26.3698 256.576 24.9698C256.576 23.5523 256.909 22.301 257.574 21.2161C258.256 20.1136 259.175 19.256 260.33 18.6436C261.503 18.0136 262.842 17.6986 264.346 17.6986C265.834 17.6986 267.164 18.0136 268.336 18.6436C269.509 19.256 270.428 20.1048 271.093 21.1898C271.758 22.2748 272.09 23.5348 272.09 24.9698C272.09 26.3698 271.758 27.6211 271.093 28.7236C270.428 29.8085 269.509 30.6661 268.336 31.2961C267.164 31.9261 265.834 32.2411 264.346 32.2411ZM264.346 28.8811C265.029 28.8811 265.642 28.7236 266.184 28.4086C266.727 28.0936 267.155 27.6473 267.47 27.0698C267.785 26.4748 267.943 25.7748 267.943 24.9698C267.943 24.1473 267.785 23.4473 267.47 22.8698C267.155 22.2923 266.727 21.8461 266.184 21.5311C265.642 21.2161 265.029 21.0586 264.346 21.0586C263.664 21.0586 263.052 21.2161 262.509 21.5311C261.967 21.8461 261.529 22.2923 261.196 22.8698C260.881 23.4473 260.724 24.1473 260.724 24.9698C260.724 25.7748 260.881 26.4748 261.196 27.0698C261.529 27.6473 261.967 28.0936 262.509 28.4086C263.052 28.7236 263.664 28.8811 264.346 28.8811Z" fill="black"/>
</svg>
