<svg width="361" height="300" viewBox="0 0 361 300" fill="none" xmlns="http://www.w3.org/2000/svg">
<g clip-path="url(#clip0_34_2502)">
<path d="M110.1 81.541L170 46.9574L239.167 166.758L179.267 201.342L213.851 261.242L153.95 295.826L84.7831 176.025L144.684 141.442L110.1 81.541Z" fill="#FFB9AA"/>
<path d="M276.425 185.181L207.258 65.3802L170 46.9577L239.167 166.758L276.425 185.181Z" fill="#94E986"/>
<path d="M153.946 295.817L213.847 261.233L251.105 279.656L191.205 314.239L153.946 295.817Z" fill="#FFCE51"/>
<path d="M213.85 261.239L179.266 201.339L216.525 219.761L251.108 279.662L213.85 261.239Z" fill="#94E986"/>
<path d="M179.265 201.34L239.166 166.756L276.424 185.179L216.524 219.762L179.265 201.34Z" fill="#FFCE51"/>
<path d="M110.1 81.541L170 46.9574L239.167 166.758L179.267 201.342L213.851 261.242L153.95 295.826L84.7831 176.025L144.684 141.442L110.1 81.541Z" stroke="black" stroke-width="2" stroke-linejoin="round"/>
<path d="M276.425 185.181L207.258 65.3802L170 46.9577L239.167 166.758L276.425 185.181Z" stroke="black" stroke-width="2" stroke-linejoin="round"/>
<path d="M153.946 295.817L213.847 261.233L251.105 279.656L191.205 314.239L153.946 295.817Z" stroke="black" stroke-width="2" stroke-linejoin="round"/>
<path d="M213.85 261.239L179.266 201.339L216.525 219.761L251.108 279.662L213.85 261.239Z" stroke="black" stroke-width="2" stroke-linejoin="round"/>
<path d="M179.265 201.34L239.166 166.756L276.424 185.179L216.524 219.762L179.265 201.34Z" stroke="black" stroke-width="2" stroke-linejoin="round"/>
</g>
<defs>
<clipPath id="clip0_34_2502">
<rect width="264.09" height="264.09" fill="white" transform="translate(228.934 0.225952) rotate(60)"/>
</clipPath>
</defs>
</svg>
