<svg width="130" height="116" viewBox="0 0 130 116" fill="none" xmlns="http://www.w3.org/2000/svg">
<g clip-path="url(#clip0_72_418)">
<path d="M31.9628 74.456L18.4912 51.9355L63.532 24.9925L77.0036 47.513L99.5241 34.0414L112.996 56.5617L67.9546 83.5049L54.4833 60.9845L31.9628 74.456Z" fill="#FFB9AA"/>
<path d="M70.3019 10.7501L25.2611 37.6932L18.4913 51.9357L63.5322 24.9926L70.3019 10.7501Z" fill="#94E986"/>
<path d="M112.992 56.5636L99.5208 34.0431L106.291 19.8006L119.762 42.3209L112.992 56.5636Z" fill="#FFCE51"/>
<path d="M99.5229 34.0416L77.0026 47.5131L83.7723 33.2706L106.293 19.7991L99.5229 34.0416Z" fill="#94E986"/>
<path d="M77.0028 47.5138L63.5313 24.9933L70.301 10.7508L83.7726 33.2713L77.0028 47.5138Z" fill="#FFCE51"/>
<path d="M31.9628 74.456L18.4912 51.9355L63.532 24.9925L77.0036 47.513L99.5241 34.0414L112.996 56.5617L67.9546 83.5049L54.4833 60.9845L31.9628 74.456Z" stroke="black" stroke-width="2" stroke-linejoin="round"/>
<path d="M70.3019 10.7501L25.2611 37.6932L18.4913 51.9357L63.5322 24.9926L70.3019 10.7501Z" stroke="black" stroke-width="2" stroke-linejoin="round"/>
<path d="M112.992 56.5636L99.5208 34.0431L106.291 19.8006L119.762 42.3209L112.992 56.5636Z" stroke="black" stroke-width="2" stroke-linejoin="round"/>
<path d="M99.5229 34.0416L77.0026 47.5131L83.7723 33.2706L106.293 19.7991L99.5229 34.0416Z" stroke="black" stroke-width="2" stroke-linejoin="round"/>
<path d="M77.0028 47.5138L63.5313 24.9933L70.301 10.7508L83.7726 33.2713L77.0028 47.5138Z" stroke="black" stroke-width="2" stroke-linejoin="round"/>
</g>
<defs>
<clipPath id="clip0_72_418">
<rect width="100.196" height="100.196" fill="white" transform="translate(0.416992 29.8533) rotate(-30.8875)"/>
</clipPath>
</defs>
</svg>
